<svg width="64" height="64" viewBox="0 0 16.933 16.933" xmlns="http://www.w3.org/2000/svg"><path fill="green" d="M0 0h16.961v16.933H0z" style="fill:#f60"/><path d="M4.796 10.708a1.429 1.429 0 0 1 1.429 1.43 1.44 1.44 0 0 1-1.43 1.428 1.45 1.45 0 0 1-1.428-1.429 1.429 1.429 0 0 1 1.429-1.429m-1.43-7.341a10.2 10.2 0 0 1 10.2 10.2h-1.855a8.344 8.344 0 0 0-8.344-8.345V3.367m0 3.71a6.49 6.49 0 0 1 6.49 6.49H8a4.634 4.634 0 0 0-4.634-4.635Z" style="fill:#fff;fill-opacity:1;stroke-width:.655478"/></svg>